# xmcd
#
# Track frame offsets:
#      150
#      12397
#      24324
#      34235
#      46254
#      59672
#      77716
#      86522
#      97364
#      116013
#      129098
#      142965
# 
# Disc length: 2074 seconds
#
# Revision: 2
# Processed by: cddbd v1.4PL0 Copyright (c) Steve Scherf et al.
#
# Submitted via: FreeRIP 1.20
#
DISCID=9b08180c
DTITLE=Johnny Cash - Ring Of Fire - The Best of Johnny Cash
DYEAR=1900
DGENRE=country
TTITLE0=Ring Of Fire
TTITLE1=I'd Still Be There
TTITLE2=What Do I Care
TTITLE3=I Still Miss Someone
TTITLE4=Forty Shades Of Green
TTITLE5=Were You There (When They Crucified My Lord)
TTITLE6=The Rebel - Johnny Yuma
TTITLE7=Bonanza!
TTITLE8=The Big Battle
TTITLE9=Remember The Alamo
TTITLE10=Tennessee Flat-Top Box
TTITLE11=(There'll Be) Peace In The Valley
EXTD=
EXTT0=
EXTT1=
EXTT2=
EXTT3=
EXTT4=
EXTT5=
EXTT6=
EXTT7=
EXTT8=
EXTT9=
EXTT10=
EXTT11=
PLAYORDER=
